<?xml version="1.0"?>
<svg xmlns="http://www.w3.org/2000/svg" viewBox="0 0 64 64" width="512" height="512"><g id="Filled_outline" data-name="Filled outline"><rect x="14" y="52" width="36" height="9" style="fill:#e4544f"/><path d="M30,3h4A16,16,0,0,1,50,19V52a0,0,0,0,1,0,0H14a0,0,0,0,1,0,0V19A16,16,0,0,1,30,3Z" style="fill:#ffd782"/><path d="M12,52h2a0,0,0,0,1,0,0v9a0,0,0,0,1,0,0H6a0,0,0,0,1,0,0V58A6,6,0,0,1,12,52Z" style="fill:#73cac2"/><path d="M50,52h8a0,0,0,0,1,0,0v9a0,0,0,0,1,0,0H56a6,6,0,0,1-6-6V52A0,0,0,0,1,50,52Z" transform="translate(108 113) rotate(-180)" style="fill:#73cac2"/><path d="M40,29a6,6,0,0,0,6-6H34A6,6,0,0,0,40,29Z" style="fill:#fff"/><path d="M37.888,23a2.227,2.227,0,0,0-.138.75,2.25,2.25,0,0,0,4.5,0,2.227,2.227,0,0,0-.138-.75Z" style="fill:#e4544f"/><path d="M40,17h0a6,6,0,0,1,6,6v0a0,0,0,0,1,0,0H34a0,0,0,0,1,0,0v0A6,6,0,0,1,40,17Z" style="fill:#394d5c"/><path d="M24,29a6,6,0,0,0,6-6H18A6,6,0,0,0,24,29Z" style="fill:#fff"/><path d="M21.888,23a2.227,2.227,0,0,0-.138.75,2.25,2.25,0,0,0,4.5,0,2.227,2.227,0,0,0-.138-.75Z" style="fill:#e4544f"/><path d="M24,17h0a6,6,0,0,1,6,6v0a0,0,0,0,1,0,0H18a0,0,0,0,1,0,0v0A6,6,0,0,1,24,17Z" style="fill:#394d5c"/><polygon points="20 52 14 52 14 38 20 40 20 52" style="fill:#f1c056"/><polygon points="44 52 50 52 50 38 44 40 44 52" style="fill:#f1c056"/><circle cx="32" cy="31" r="5" style="fill:#e4544f"/><path d="M32,48a7.992,7.992,0,0,0,2-.262V40H30v7.738A7.992,7.992,0,0,0,32,48Z" style="fill:#e4544f"/><path d="M40,40H34v7.738A8,8,0,0,0,40,40Z" style="fill:#f98c96"/><path d="M30,47.738V40H24A8,8,0,0,0,30,47.738Z" style="fill:#f98c96"/><path d="M10,25h4a0,0,0,0,1,0,0v8a0,0,0,0,1,0,0H10a2,2,0,0,1-2-2V27A2,2,0,0,1,10,25Z" style="fill:#ebb562"/><rect x="11" y="28" width="3" height="2" style="fill:#fff69a"/><path d="M52,25h4a0,0,0,0,1,0,0v8a0,0,0,0,1,0,0H52a2,2,0,0,1-2-2V27A2,2,0,0,1,52,25Z" transform="translate(106 58) rotate(-180)" style="fill:#ebb562"/><rect x="50" y="28" width="3" height="2" style="fill:#fff69a"/><rect x="17.586" y="32" width="2.828" height="2" transform="translate(-17.77 23.101) rotate(-45)" style="fill:#f98c96"/><rect x="21.586" y="32" width="2.828" height="2" transform="translate(-16.598 25.929) rotate(-45)" style="fill:#f98c96"/><rect x="44" y="31.586" width="2" height="2.828" transform="translate(-10.154 41.485) rotate(-45)" style="fill:#f98c96"/><rect x="40" y="31.586" width="2" height="2.828" transform="translate(-11.326 38.657) rotate(-45)" style="fill:#f98c96"/><rect x="23" y="52" width="18" height="9" style="fill:#f98c96"/><rect x="14" y="57" width="9" height="4" style="fill:#ffd782"/><rect x="41" y="57" width="9" height="4" style="fill:#ffd782"/><rect x="25" y="9.228" width="2.001" height="8.544" transform="translate(4.23 33.104) rotate(-69.444)" style="fill:#394d5c"/><rect x="33.728" y="12.5" width="8.544" height="2.001" transform="translate(-2.32 14.216) rotate(-20.576)" style="fill:#394d5c"/><path d="M19,7a3.989,3.989,0,0,0-7.957-.422,4.011,4.011,0,1,0-.954,7.253,4,4,0,1,0,6.948-3.406A3.982,3.982,0,0,0,19,7Z" style="fill:#e4544f"/><path d="M45,7a3.989,3.989,0,0,1,7.957-.422,4.011,4.011,0,1,1,.954,7.253,4,4,0,1,1-6.948-3.406A3.982,3.982,0,0,1,45,7Z" style="fill:#e4544f"/><path d="M40,39H24a1,1,0,0,0-1,1,8.991,8.991,0,0,0,6.75,8.706h0a8.734,8.734,0,0,0,4.494,0h0A8.991,8.991,0,0,0,41,40,1,1,0,0,0,40,39ZM29,46.318A7,7,0,0,1,25.071,41H29Zm4,.605a6.574,6.574,0,0,1-2,0V41h2Zm2-.605V41h3.929A7,7,0,0,1,35,46.318Z"/><path d="M9.411,14.98a5.029,5.029,0,0,0,3.625,2.913C13.012,18.254,13,18.624,13,19v5H10a3,3,0,0,0-3,3v4a3,3,0,0,0,3,3h3V51H12a7.008,7.008,0,0,0-7,7v3a1,1,0,0,0,1,1H58a1,1,0,0,0,1-1V58a7.008,7.008,0,0,0-7-7H51V34h3a3,3,0,0,0,3-3V27a3,3,0,0,0-3-3H51V19c0-.376-.012-.746-.036-1.107a5.029,5.029,0,0,0,3.625-2.913A5,5,0,1,0,55,5a4.834,4.834,0,0,0-1.354.2,4.971,4.971,0,0,0-9.379.268A16.914,16.914,0,0,0,34,2H30A16.914,16.914,0,0,0,19.733,5.463,4.971,4.971,0,0,0,10.354,5.2,4.834,4.834,0,0,0,9,5a5,5,0,1,0,.411,9.98ZM13,60H7V58a5.006,5.006,0,0,1,5-5h1Zm0-32H11v2h2v2H10a1,1,0,0,1-1-1V27a1,1,0,0,1,1-1h3Zm38,2h2V28H51V26h3a1,1,0,0,1,1,1v4a1,1,0,0,1-1,1H51Zm0,23h1a5.006,5.006,0,0,1,5,5v2H51ZM22,60H15V58h7Zm0-4H15V53h7Zm-7-5V39.387l4,1.334V51Zm25,9H24V53H40Zm9,0H42V58h7Zm0-4H42V53h7Zm0-5H45V40.721l4-1.334ZM49,4a2.984,2.984,0,0,1,2.963,2.684,1,1,0,0,0,1.507.753A2.952,2.952,0,0,1,55,7a3,3,0,0,1,0,6,2.968,2.968,0,0,1-.815-.131,1,1,0,0,0-1.252.755A3,3,0,0,1,47,13a2.964,2.964,0,0,1,.726-1.928,1,1,0,0,0-.251-1.506A2.972,2.972,0,0,1,46,7,3,3,0,0,1,49,4ZM19.9,7.923A14.93,14.93,0,0,1,30,4h4A14.93,14.93,0,0,1,44.1,7.923,4.913,4.913,0,0,0,45.6,10.652,4.938,4.938,0,0,0,45,13a5.006,5.006,0,0,0,3.954,4.886c.028.362.046.732.046,1.114V37.279l-5.316,1.772A1,1,0,0,0,43,40V51H21V40a1,1,0,0,0-.684-.949L15,37.279V19c0-.382.018-.752.046-1.114A5.006,5.006,0,0,0,19,13a4.938,4.938,0,0,0-.6-2.348A4.913,4.913,0,0,0,19.9,7.923ZM9,7a2.949,2.949,0,0,1,1.529.436,1,1,0,0,0,1.508-.752,2.989,2.989,0,1,1,4.488,2.882,1,1,0,0,0-.251,1.506A2.964,2.964,0,0,1,17,13a3,3,0,0,1-5.933.624,1,1,0,0,0-.978-.793,1.023,1.023,0,0,0-.274.038A2.968,2.968,0,0,1,9,13,3,3,0,0,1,9,7Z"/><rect x="17.586" y="32" width="2.828" height="2" transform="translate(-17.77 23.101) rotate(-45)"/><rect x="21.586" y="32" width="2.828" height="2" transform="translate(-16.598 25.929) rotate(-45)"/><rect x="44" y="31.586" width="2" height="2.828" transform="translate(-10.154 41.485) rotate(-45)"/><rect x="40" y="31.586" width="2" height="2.828" transform="translate(-11.326 38.657) rotate(-45)"/><rect x="25" y="9.228" width="2.001" height="8.544" transform="translate(4.23 33.104) rotate(-69.444)"/><rect x="33.728" y="12.5" width="8.544" height="2.001" transform="translate(-2.32 14.216) rotate(-20.576)"/><path d="M24,30a6.964,6.964,0,0,0,2.157-.344,6,6,0,1,0,11.686,0,7.012,7.012,0,1,0-4.5-4.5,5.831,5.831,0,0,0-2.688,0A7,7,0,1,0,24,30ZM40,18a5.008,5.008,0,0,1,4.9,4H35.1A5.008,5.008,0,0,1,40,18Zm1.225,6a1.25,1.25,0,0,1-2.45,0Zm-4.45,0a3.233,3.233,0,0,0,6.45,0H44.9a5,5,0,0,1-9.8,0ZM32,27a4,4,0,1,1-4,4A4,4,0,0,1,32,27Zm-8-9a5.008,5.008,0,0,1,4.9,4H19.1A5.008,5.008,0,0,1,24,18Zm1.225,6a1.25,1.25,0,0,1-2.45,0Zm-4.45,0a3.233,3.233,0,0,0,6.45,0H28.9a5,5,0,0,1-9.8,0Z"/></g></svg>
