<svg height="479pt" viewBox="-15 0 479 479.16" width="479pt" xmlns="http://www.w3.org/2000/svg"><path d="m160.078125 151.160156h112v144h-112zm0 0" fill="#7d8d9c"/><path d="m160.078125 39.160156h112v112h-112zm0 0" fill="#ffd782"/><path d="m184.078125 63.160156h16v16h-16zm0 0" fill="#394d5c"/><path d="m232.078125 63.160156h16v16h-16zm0 0" fill="#394d5c"/><path d="m216.078125 127.160156c-1.578125 0-3.125-.46875-4.4375-1.34375l-24-16c-3.675781-2.453125-4.667969-7.421875-2.214844-11.097656 2.449219-3.675781 7.417969-4.667969 11.09375-2.214844l19.558594 13.054688 19.5625-13.039063c3.675781-2.453125 8.644531-1.460937 11.09375 2.214844 2.453125 3.675781 1.460937 8.644531-2.214844 11.097656l-24 16c-1.316406.871094-2.859375 1.332031-4.441406 1.328125zm0 0" fill="#394d5c"/><path d="m112.078125 151.160156h48v32h-48zm0 0" fill="#143441"/><path d="m80.078125 151.160156h32v64h-32zm0 0" fill="#7d8d9c"/><path d="m112.078125 247.160156c0 8.835938-7.160156 16-16 16-8.835937 0-16-7.164062-16-16 0-8.835937 7.164063-16 16-16 8.839844 0 16 7.164063 16 16zm0 0" fill="#ffd782"/><g fill="#f98c96"><path d="m43.65625 118.320312-7.152344-14.320312 11.574219-5.785156v-41.605469l56-11.210937v54.707031l-20.421875 10.214843-7.152344-14.320312 11.574219-5.785156v-25.292969l-24 4.789063v38.394531zm0 0"/><path d="m387.65625 190.320312-7.152344-14.320312 11.574219-5.785156v-41.605469l56-11.210937v54.707031l-20.421875 10.214843-7.152344-14.320312 11.574219-5.785156v-25.292969l-24 4.789063v38.394531zm0 0"/><path d="m379.65625 62.320312-7.152344-14.320312 11.574219-5.785156v-32l20.425781-10.214844 7.152344 14.320312-11.578125 5.785157v32zm0 0"/><path d="m11.65625 222.320312-7.152344-14.320312 11.574219-5.785156v-32l20.425781-10.214844 7.152344 14.320312-11.578125 5.785157v32zm0 0"/></g><path d="m368.078125 223.160156h16v16h-16zm0 0" fill="#f44e7e"/><path d="m424.078125 63.160156h16v16h-16zm0 0" fill="#f44e7e"/><path d="m.078125 119.160156h16v16h-16zm0 0" fill="#f44e7e"/><path d="m104.078125 7.160156h16v16h-16zm0 0" fill="#f44e7e"/><path d="m320.078125 183.160156h-48v-32h48zm0 0" fill="#143441"/><path d="m352.078125 183.160156h-32v-64h32zm0 0" fill="#7d8d9c"/><path d="m352.078125 87.160156c0 8.835938-7.160156 16-16 16-8.835937 0-16-7.164062-16-16 0-8.835937 7.164063-16 16-16 8.839844 0 16 7.164063 16 16zm0 0" fill="#ffd782"/><path d="m200.078125 151.160156v32l16 16 16-16v-32zm0 0" fill="#da1c4b"/><path d="m208.078125 223.160156h16v16h-16zm0 0" fill="#143441"/><path d="m208.078125 255.160156h16v16h-16zm0 0" fill="#143441"/><path d="m176.078125 439.160156h-48l32-144h48zm0 0" fill="#143441"/><path d="m96.078125 439.160156h80v32h-80zm0 0" fill="#394d5c"/><path d="m256.078125 439.160156h48l-32-144h-48zm0 0" fill="#143441"/><path d="m336.078125 471.160156h-80v-32h80zm0 0" fill="#394d5c"/><path d="m184.078125 63.160156h16v16h-16zm0 0"/><path d="m232.078125 63.160156h16v16h-16zm0 0"/><path d="m216.078125 127.160156c1.582031 0 3.128906-.46875 4.441406-1.34375l24-16c3.675781-2.453125 4.667969-7.421875 2.214844-11.097656-2.449219-3.675781-7.417969-4.667969-11.09375-2.214844l-19.5625 13.054688-19.558594-13.039063c-3.675781-2.453125-8.644531-1.460937-11.09375 2.214844-2.453125 3.675781-1.460937 8.644531 2.214844 11.097656l24 16c1.316406.871094 2.859375 1.332031 4.4375 1.328125zm0 0"/><path d="m72.078125 247.160156c0 13.253906 10.746094 24 24 24 13.257813 0 24-10.746094 24-24s-10.742187-24-24-24c-13.253906 0-24 10.746094-24 24zm24-8c4.421875 0 8 3.582032 8 8 0 4.417969-3.578125 8-8 8-4.417969 0-8-3.582031-8-8 0-4.417968 3.582031-8 8-8zm0 0"/><path d="m64.078125 108.105469v-38.394531l24-4.789063v25.292969l-11.574219 5.785156 7.152344 14.320312 20.421875-10.214843v-54.707031l-56 11.210937v41.605469l-11.574219 5.785156 7.152344 14.320312zm0 0"/><path d="m420.503906 168 7.152344 14.320312 20.421875-10.214843v-54.707031l-56 11.210937v41.605469l-11.574219 5.785156 7.152344 14.320312 20.421875-10.214843v-38.394531l24-4.789063v25.292969zm0 0"/><path d="m400.078125 20.105469 11.578125-5.785157-7.152344-14.320312-20.425781 10.214844v32l-11.574219 5.785156 7.152344 14.320312 20.421875-10.214843zm0 0"/><path d="m32.078125 212.105469v-32l11.578125-5.785157-7.152344-14.320312-20.425781 10.214844v32l-11.574219 5.785156 7.152344 14.320312zm0 0"/><path d="m368.078125 223.160156h16v16h-16zm0 0"/><path d="m424.078125 63.160156h16v16h-16zm0 0"/><path d="m.078125 119.160156h16v16h-16zm0 0"/><path d="m104.078125 7.160156h16v16h-16zm0 0"/><path d="m312.078125 143.160156h-32v-112h-128v112h-80v80h48v-32h32v103.136719l-30.398437 136.863281h-33.601563v48h96v-39.136718l30.402344-136.863282h3.199219l30.398437 136.863282v39.136718h96v-48h-33.597656l-30.402344-136.863281v-103.136719h80v-80h-48zm-144-96h96v96h-96zm40 112h16v20.6875l-8 8-8-8zm-104 48h-16v-48h16zm16-32v-16h32v16zm48 288h-64v-16h64zm1.601563-32h-31.625l28.425781-128h31.609375zm158.398437 16v16h-64v-16zm-65.597656-16-28.425781-128h31.625l28.441406 128zm1.597656-144h-96v-128h24v27.3125l24 24 24-24v-27.3125h24zm48-112h-32v-16h32zm16-48h16v48h-16zm0 0"/><path d="m360.078125 87.160156c0-13.253906-10.742187-24-24-24-13.253906 0-24 10.746094-24 24s10.746094 24 24 24c13.257813 0 24-10.746094 24-24zm-24 8c-4.417969 0-8-3.582031-8-8 0-4.417968 3.582031-8 8-8 4.421875 0 8 3.582032 8 8 0 4.417969-3.578125 8-8 8zm0 0"/><path d="m208.078125 223.160156h16v16h-16zm0 0"/><path d="m208.078125 255.160156h16v16h-16zm0 0"/></svg>