<?xml version="1.0"?>
<svg xmlns="http://www.w3.org/2000/svg" viewBox="0 0 64 64" width="512" height="512"><g id="Filled_outline" data-name="Filled outline"><path d="M37,25V48.828a4.116,4.116,0,0,0,3.607,4.153A4,4,0,0,0,45,49v2.828a4.116,4.116,0,0,0,3.607,4.153A4,4,0,0,0,53,52v2.828a4.116,4.116,0,0,0,3.607,4.153A4,4,0,0,0,61,55V25A12,12,0,0,0,49,13h0A12,12,0,0,0,37,25Z" style="fill:#cfdfe8"/><path d="M3,17V48.828a4.116,4.116,0,0,0,3.607,4.153A4,4,0,0,0,11,49V45a4,4,0,0,0,8,0v6.828a4.116,4.116,0,0,0,3.607,4.153A4,4,0,0,0,27,52V17A12,12,0,0,0,15,5h0A12,12,0,0,0,3,17Z" style="fill:#cfdfe8"/><path d="M49,30a6,6,0,0,0,6-6H43A6,6,0,0,0,49,30Z" style="fill:#fcf05a"/><path d="M46.888,24a2.227,2.227,0,0,0-.138.75,2.25,2.25,0,0,0,4.5,0,2.227,2.227,0,0,0-.138-.75Z" style="fill:#dd3e46"/><path d="M49,18h0a6,6,0,0,1,6,6v0a0,0,0,0,1,0,0H43a0,0,0,0,1,0,0v0A6,6,0,0,1,49,18Z" style="fill:#394d5c"/><path d="M15,23a6,6,0,0,0,6-6H9A6,6,0,0,0,15,23Z" style="fill:#fcf05a"/><path d="M12.888,17a2.227,2.227,0,0,0-.138.75,2.25,2.25,0,0,0,4.5,0,2.227,2.227,0,0,0-.138-.75Z" style="fill:#dd3e46"/><path d="M15,11h0a6,6,0,0,1,6,6v0a0,0,0,0,1,0,0H9a0,0,0,0,1,0,0v0A6,6,0,0,1,15,11Z" style="fill:#394d5c"/><path d="M55.293,40.707,53.586,39H44.414l-1.707,1.707-1.414-1.414,2-2A1,1,0,0,1,44,37H54a1,1,0,0,1,.707.293l2,2Z" style="fill:#5a6470"/><path d="M21.293,35.707,19.586,34H10.414L8.707,35.707,7.293,34.293l2-2A1,1,0,0,1,10,32H20a1,1,0,0,1,.707.293l2,2Z" style="fill:#5a6470"/><rect x="46" y="41" width="6" height="2" style="fill:#5a6470"/><rect x="5.586" y="27" width="2.828" height="2" transform="translate(-17.749 13.151) rotate(-45)" style="fill:#5a6470"/><rect x="9.586" y="27" width="2.828" height="2" transform="translate(-16.577 15.979) rotate(-45)" style="fill:#5a6470"/><rect x="22" y="26.586" width="2" height="2.828" transform="translate(-13.062 24.464) rotate(-45)" style="fill:#5a6470"/><rect x="18" y="26.586" width="2" height="2.828" transform="translate(-14.234 21.636) rotate(-45)" style="fill:#5a6470"/><rect x="10" y="40" width="2" height="2" style="fill:#5a6470"/><circle cx="35" cy="8" r="4" style="fill:#cfdfe8"/><circle cx="7" cy="59" r="2" style="fill:#cfdfe8"/><circle cx="47" cy="5" r="2" style="fill:#cfdfe8"/><circle cx="34" cy="58" r="3" style="fill:#cfdfe8"/><path d="M49,12A13.015,13.015,0,0,0,36,25V48.828a5.133,5.133,0,0,0,4.512,5.149,5.03,5.03,0,0,0,3.6-1.064,4.974,4.974,0,0,0,8,3,5.088,5.088,0,0,0,4.4,4.064c.159.015.318.023.477.023A5,5,0,0,0,62,55V25A13.015,13.015,0,0,0,49,12ZM60,55a3.008,3.008,0,0,1-.982,2.22,2.96,2.96,0,0,1-2.316.766A3.119,3.119,0,0,1,54,54.828V52a1,1,0,0,0-2,0,3.008,3.008,0,0,1-.982,2.22,2.967,2.967,0,0,1-2.316.766A3.119,3.119,0,0,1,46,51.828V49a1,1,0,0,0-2,0,3.008,3.008,0,0,1-.982,2.22,2.969,2.969,0,0,1-2.316.766A3.119,3.119,0,0,1,38,48.828V25a11,11,0,0,1,22,0Z"/><path d="M10.363,52.7A5.013,5.013,0,0,0,12,49v0a4.992,4.992,0,0,0,6,0v2.83a5.133,5.133,0,0,0,4.512,5.149c.159.015.318.023.477.023A5,5,0,0,0,28,52V17A13,13,0,0,0,2,17V48.828a5.133,5.133,0,0,0,4.512,5.149A5.038,5.038,0,0,0,10.363,52.7ZM4,48.828V17a11,11,0,0,1,22,0V52a3.008,3.008,0,0,1-.982,2.22,2.966,2.966,0,0,1-2.316.766A3.119,3.119,0,0,1,20,51.828V45a1,1,0,0,0-2,0,3,3,0,0,1-6,0,1,1,0,0,0-2,0v4a3.008,3.008,0,0,1-.982,2.22,2.968,2.968,0,0,1-2.316.766A3.119,3.119,0,0,1,4,48.828Z"/><path d="M49,31a7,7,0,1,0-7-7A7.008,7.008,0,0,0,49,31Zm0-12a5.008,5.008,0,0,1,4.9,4H44.1A5.008,5.008,0,0,1,49,19Zm1.225,6a1.25,1.25,0,0,1-2.45,0Zm-4.45,0a3.233,3.233,0,0,0,6.45,0H53.9a5,5,0,0,1-9.8,0Z"/><path d="M15,24a7,7,0,1,0-7-7A7.008,7.008,0,0,0,15,24Zm0-12a5.008,5.008,0,0,1,4.9,4H10.1A5.008,5.008,0,0,1,15,12Zm1.225,6a1.25,1.25,0,0,1-2.45,0Zm-4.45,0a3.233,3.233,0,0,0,6.45,0H19.9a5,5,0,0,1-9.8,0Z"/><path d="M54,37H44a1,1,0,0,0-.707.293l-2,2,1.414,1.414L44.414,39h9.172l1.707,1.707,1.414-1.414-2-2A1,1,0,0,0,54,37Z"/><path d="M20,32H10a1,1,0,0,0-.707.293l-2,2,1.414,1.414L10.414,34h9.172l1.707,1.707,1.414-1.414-2-2A1,1,0,0,0,20,32Z"/><rect x="46" y="41" width="6" height="2"/><rect x="5.586" y="27" width="2.828" height="2" transform="translate(-17.749 13.151) rotate(-45)"/><rect x="9.586" y="27" width="2.828" height="2" transform="translate(-16.577 15.979) rotate(-45)"/><rect x="22" y="26.586" width="2" height="2.828" transform="translate(-13.062 24.464) rotate(-45)"/><rect x="18" y="26.586" width="2" height="2.828" transform="translate(-14.234 21.636) rotate(-45)"/><rect x="10" y="40" width="2" height="2"/><path d="M35,13a5,5,0,1,0-5-5A5.006,5.006,0,0,0,35,13Zm0-8a3,3,0,1,1-3,3A3,3,0,0,1,35,5Z"/><path d="M10,59a3,3,0,1,0-3,3A3,3,0,0,0,10,59ZM7,60a1,1,0,1,1,1-1A1,1,0,0,1,7,60Z"/><path d="M47,8a3,3,0,1,0-3-3A3,3,0,0,0,47,8Zm0-4a1,1,0,1,1-1,1A1,1,0,0,1,47,4Z"/><path d="M34,62a4,4,0,1,0-4-4A4,4,0,0,0,34,62Zm0-6a2,2,0,1,1-2,2A2,2,0,0,1,34,56Z"/></g></svg>
