<?xml version="1.0"?>
<svg xmlns="http://www.w3.org/2000/svg" viewBox="0 0 64 64" width="512" height="512"><g id="Filled_outline" data-name="Filled outline"><path d="M60.961,31.568A23.752,23.752,0,0,0,40.513,9.249,24.013,24.013,0,0,0,13,33a22.588,22.588,0,0,0,5,14h5V59l7,2H44l7-2V47h5A22.7,22.7,0,0,0,60.961,31.568Z" style="fill:#5a6470"/><path d="M19,28c-1.611,1.464-2,3.652-2,6a8,8,0,0,0,8,8,8.085,8.085,0,0,0,8-8Z" style="fill:#fff69a"/><path d="M55,28,41,34a8.086,8.086,0,0,0,8,8,8,8,0,0,0,8-8C57,31.652,56.614,29.464,55,28Z" style="fill:#fff69a"/><polygon points="42.002 49 41.002 46 38.002 44 36.002 44 33.002 46 32.002 49 35.002 52 37.002 49 39.002 52 42.002 49" style="fill:#e8e8e8"/><path d="M33,35a.984.984,0,0,1-.4-.084l-16-7,.8-1.832,15.375,6.727L33.786,31.8l-1.508-3.016-4.647-1.858.743-1.858,5,2a1,1,0,0,1,.523.482l2,4a1,1,0,0,1-.188,1.154l-2,2A1,1,0,0,1,33,35Z" style="fill:#143441"/><path d="M41,35a1,1,0,0,1-.707-.293l-2-2a1,1,0,0,1-.187-1.154l2-4a1,1,0,0,1,.523-.482l5-2,.743,1.858-4.647,1.858L40.219,31.8l1.008,1.008L56.6,26.084l.8,1.832-16,7A.988.988,0,0,1,41,35Z" style="fill:#143441"/><rect x="48.884" y="23.5" width="2.236" height="2" transform="translate(-5.678 24.948) rotate(-26.565)" style="fill:#143441"/><path d="M40.513,9.249A24,24,0,0,0,16.834,20H57.25A23.668,23.668,0,0,0,40.513,9.249Z" style="fill:#f46464"/><rect x="20" y="15" width="7" height="2" style="fill:#f7adb6"/><rect x="40" y="15" width="14" height="2" style="fill:#f7adb6"/><rect x="31" y="15" width="2" height="2" style="fill:#f7adb6"/><path d="M20,16s0-6-8-6S3,7,3,7s-1,8,9,8C18,15,20,16,20,16Z" style="fill:#dd3e46"/><path d="M20,16S5,17,5,29,3,43,3,43s10,0,10-10S20,16,20,16Z" style="fill:#dd3e46"/><path d="M3.316,43.948l-.632-1.9L3,43l-.329-.944C2.725,42.036,8,39.979,8,28h2C10,41.564,3.589,43.857,3.316,43.948Z" style="fill:#f7adb6"/><rect x="30" y="56" width="2" height="5" style="fill:#e8e8e8"/><rect x="34" y="56" width="2" height="5" style="fill:#e8e8e8"/><rect x="38" y="56" width="2" height="5" style="fill:#e8e8e8"/><rect x="42" y="56" width="2" height="5" style="fill:#e8e8e8"/><polygon points="23 47 27 49 27 60.143 23 59 23 47" style="fill:#b8c6cc"/><polygon points="51 47 47 49 47 60.143 51 59 51 47" style="fill:#b8c6cc"/><path d="M33.976,34.441l1.733-1.734a1,1,0,0,0,.188-1.154l-2-4a1,1,0,0,0-.523-.482l-5-2-.743,1.858,4.647,1.858L33.786,31.8l-1.008,1.008L17.4,26.084l-.8,1.832.847.371A9.941,9.941,0,0,0,16,34a8.992,8.992,0,0,0,17.974.441ZM25,41a7.009,7.009,0,0,1-7-7c0-2.242.388-3.759,1.244-4.808l12.718,5.452A7.067,7.067,0,0,1,25,41Z"/><path d="M41.951,45.684a1,1,0,0,0-.394-.516l-3-2A1,1,0,0,0,38,43H36a1,1,0,0,0-.554.168l-3,2a1,1,0,0,0-.394.516l-1,3a1,1,0,0,0,.241,1.023l3,3A1.009,1.009,0,0,0,35.1,53a1,1,0,0,0,.733-.44L37,50.8l1.168,1.752A1,1,0,0,0,38.9,53c.033,0,.066.005.1.005a1,1,0,0,0,.707-.293l3-3a1,1,0,0,0,.242-1.023Zm-2.793,4.747-1.324-1.986a1,1,0,0,0-1.664,0l-1.323,1.986-1.7-1.7.7-2.087L36.305,45h1.4l2.462,1.642.7,2.087Z"/><path d="M57.4,27.916l-.8-1.832L41.227,32.811,40.219,31.8l1.508-3.016,4.647-1.858-.743-1.858-5,2a1,1,0,0,0-.523.482l-2,4a1,1,0,0,0,.187,1.154l1.734,1.734A8.992,8.992,0,0,0,58,34a9.939,9.939,0,0,0-1.446-5.713ZM49,41a7.068,7.068,0,0,1-6.962-6.356l12.719-5.452C55.615,30.241,56,31.758,56,34A7.008,7.008,0,0,1,49,41Z"/><rect x="48.884" y="23.5" width="2.236" height="2" transform="translate(-5.678 24.948) rotate(-26.565)"/><rect x="31" y="15" width="2" height="2"/><path d="M61.959,31.511A24.661,24.661,0,0,0,40.653,8.259a25.14,25.14,0,0,0-20.03,5.853C19.922,12.039,17.9,9,12,9,5.065,9,3.952,6.684,3.949,6.684A1.011,1.011,0,0,0,2.9,6.005a1,1,0,0,0-.893.871,8.446,8.446,0,0,0,1.921,6.167C5.662,15.005,8.377,16,12,16c1.046,0,1.963.031,2.766.082C10.113,17.57,4,21.039,4,29,4,39.972,2.286,42.293,2.292,42.293h0A1,1,0,0,0,3,44c.086,0,6.822-.081,9.708-5.384a25.258,25.258,0,0,0,4.5,8.988,1,1,0,0,0,.8.4h4V59a1,1,0,0,0,.725.962l7,2A1.02,1.02,0,0,0,30,62H44a1.02,1.02,0,0,0,.275-.038l7-2A1,1,0,0,0,52,59V48h4a1,1,0,0,0,.8-.4A23.5,23.5,0,0,0,61.959,31.511ZM40.372,10.239A22.821,22.821,0,0,1,51.459,15H40v2H53.644a22.556,22.556,0,0,1,1.716,2H18.844c.362-.5.69-.929.971-1.272q.33-.37.676-.728H27V15H22.693A23.163,23.163,0,0,1,40.372,10.239Zm-34.929,1.5A5.664,5.664,0,0,1,4.241,9.5C5.7,10.3,8.09,11,12,11c4.586,0,6.169,2.082,6.714,3.573A32.164,32.164,0,0,0,12,14C8.987,14,6.781,13.238,5.443,11.735ZM6.56,41.293C8.264,39.061,10,35.059,10,28H8c0,6.236-1.429,9.779-2.808,11.75A56.144,56.144,0,0,0,6,29c0-4.537,2.313-7.926,6.875-10.071a21.714,21.714,0,0,1,4.6-1.522,24.983,24.983,0,0,0-5.435,14.331C12.014,32.153,12,32.574,12,33,12,38.155,9.077,40.352,6.56,41.293ZM24,48.618l2,1v9.2l-2-.571Zm24,10.2v-9.2l2-1v9.628ZM55.5,46H51a.978.978,0,0,0-.443.115l0-.01-4,2A1,1,0,0,0,46,49V59.389l-2,.571V56H42v4H40V56H38v4H36V56H34v4H32V56H30v3.96l-2-.571V49a1,1,0,0,0-.553-.9l-4-2,0,.01A.978.978,0,0,0,23,46H18.5A21.444,21.444,0,0,1,14,33c0-.052,0-.1,0-.154,0-.522.024-1.038.066-1.543l.006-.078A24.243,24.243,0,0,1,17.533,21H56.7a23.178,23.178,0,0,1,3.264,10.626A21.45,21.45,0,0,1,55.5,46Z"/></g></svg>
